<?xml version="1.0" standalone="no"?>
<svg xmlns:xlink="http://www.w3.org/1999/xlink" id="wave" style="transform:rotate(0deg); transition: 0.3s" viewBox="0 0 1440 200" version="1.1" xmlns="http://www.w3.org/2000/svg"><defs><linearGradient id="sw-gradient-0" x1="0" x2="0" y1="1" y2="0"><stop stop-color="rgba(255, 13, 105, 1)" offset="0%"/><stop stop-color="rgba(254, 184, 3, 1)" offset="100%"/></linearGradient></defs><path style="transform:translate(0, 0px); opacity:1" fill="url(#sw-gradient-0)" d="M0,120L60,116.7C120,113,240,107,360,96.7C480,87,600,73,720,60C840,47,960,33,1080,50C1200,67,1320,113,1440,120C1560,127,1680,93,1800,73.3C1920,53,2040,47,2160,53.3C2280,60,2400,80,2520,76.7C2640,73,2760,47,2880,50C3000,53,3120,87,3240,106.7C3360,127,3480,133,3600,116.7C3720,100,3840,60,3960,46.7C4080,33,4200,47,4320,73.3C4440,100,4560,140,4680,150C4800,160,4920,140,5040,133.3C5160,127,5280,133,5400,136.7C5520,140,5640,140,5760,136.7C5880,133,6000,127,6120,120C6240,113,6360,107,6480,110C6600,113,6720,127,6840,113.3C6960,100,7080,60,7200,66.7C7320,73,7440,127,7560,130C7680,133,7800,87,7920,73.3C8040,60,8160,80,8280,73.3C8400,67,8520,33,8580,16.7L8640,0L8640,200L8580,200C8520,200,8400,200,8280,200C8160,200,8040,200,7920,200C7800,200,7680,200,7560,200C7440,200,7320,200,7200,200C7080,200,6960,200,6840,200C6720,200,6600,200,6480,200C6360,200,6240,200,6120,200C6000,200,5880,200,5760,200C5640,200,5520,200,5400,200C5280,200,5160,200,5040,200C4920,200,4800,200,4680,200C4560,200,4440,200,4320,200C4200,200,4080,200,3960,200C3840,200,3720,200,3600,200C3480,200,3360,200,3240,200C3120,200,3000,200,2880,200C2760,200,2640,200,2520,200C2400,200,2280,200,2160,200C2040,200,1920,200,1800,200C1680,200,1560,200,1440,200C1320,200,1200,200,1080,200C960,200,840,200,720,200C600,200,480,200,360,200C240,200,120,200,60,200L0,200Z"/><defs><linearGradient id="sw-gradient-1" x1="0" x2="0" y1="1" y2="0"><stop stop-color="rgba(255, 13, 105, 1)" offset="0%"/><stop stop-color="rgba(0, 128, 223, 1)" offset="100%"/></linearGradient></defs><path style="transform:translate(0, 50px); opacity:0.9" fill="url(#sw-gradient-1)" d="M0,20L60,16.7C120,13,240,7,360,10C480,13,600,27,720,53.3C840,80,960,120,1080,126.7C1200,133,1320,107,1440,110C1560,113,1680,147,1800,143.3C1920,140,2040,100,2160,86.7C2280,73,2400,87,2520,103.3C2640,120,2760,140,2880,133.3C3000,127,3120,93,3240,66.7C3360,40,3480,20,3600,36.7C3720,53,3840,107,3960,133.3C4080,160,4200,160,4320,140C4440,120,4560,80,4680,83.3C4800,87,4920,133,5040,133.3C5160,133,5280,87,5400,83.3C5520,80,5640,120,5760,133.3C5880,147,6000,133,6120,110C6240,87,6360,53,6480,56.7C6600,60,6720,100,6840,120C6960,140,7080,140,7200,130C7320,120,7440,100,7560,76.7C7680,53,7800,27,7920,40C8040,53,8160,107,8280,130C8400,153,8520,147,8580,143.3L8640,140L8640,200L8580,200C8520,200,8400,200,8280,200C8160,200,8040,200,7920,200C7800,200,7680,200,7560,200C7440,200,7320,200,7200,200C7080,200,6960,200,6840,200C6720,200,6600,200,6480,200C6360,200,6240,200,6120,200C6000,200,5880,200,5760,200C5640,200,5520,200,5400,200C5280,200,5160,200,5040,200C4920,200,4800,200,4680,200C4560,200,4440,200,4320,200C4200,200,4080,200,3960,200C3840,200,3720,200,3600,200C3480,200,3360,200,3240,200C3120,200,3000,200,2880,200C2760,200,2640,200,2520,200C2400,200,2280,200,2160,200C2040,200,1920,200,1800,200C1680,200,1560,200,1440,200C1320,200,1200,200,1080,200C960,200,840,200,720,200C600,200,480,200,360,200C240,200,120,200,60,200L0,200Z"/><defs><linearGradient id="sw-gradient-2" x1="0" x2="0" y1="1" y2="0"><stop stop-color="rgba(254, 184, 3, 1)" offset="0%"/><stop stop-color="rgba(254, 184, 3, 1)" offset="100%"/></linearGradient></defs><path style="transform:translate(0, 100px); opacity:0.8" fill="url(#sw-gradient-2)" d="M0,120L60,103.3C120,87,240,53,360,53.3C480,53,600,87,720,113.3C840,140,960,160,1080,146.7C1200,133,1320,87,1440,86.7C1560,87,1680,133,1800,150C1920,167,2040,153,2160,130C2280,107,2400,73,2520,76.7C2640,80,2760,120,2880,143.3C3000,167,3120,173,3240,170C3360,167,3480,153,3600,150C3720,147,3840,153,3960,150C4080,147,4200,133,4320,133.3C4440,133,4560,147,4680,150C4800,153,4920,147,5040,136.7C5160,127,5280,113,5400,120C5520,127,5640,153,5760,143.3C5880,133,6000,87,6120,70C6240,53,6360,67,6480,86.7C6600,107,6720,133,6840,126.7C6960,120,7080,80,7200,60C7320,40,7440,40,7560,53.3C7680,67,7800,93,7920,93.3C8040,93,8160,67,8280,63.3C8400,60,8520,80,8580,90L8640,100L8640,200L8580,200C8520,200,8400,200,8280,200C8160,200,8040,200,7920,200C7800,200,7680,200,7560,200C7440,200,7320,200,7200,200C7080,200,6960,200,6840,200C6720,200,6600,200,6480,200C6360,200,6240,200,6120,200C6000,200,5880,200,5760,200C5640,200,5520,200,5400,200C5280,200,5160,200,5040,200C4920,200,4800,200,4680,200C4560,200,4440,200,4320,200C4200,200,4080,200,3960,200C3840,200,3720,200,3600,200C3480,200,3360,200,3240,200C3120,200,3000,200,2880,200C2760,200,2640,200,2520,200C2400,200,2280,200,2160,200C2040,200,1920,200,1800,200C1680,200,1560,200,1440,200C1320,200,1200,200,1080,200C960,200,840,200,720,200C600,200,480,200,360,200C240,200,120,200,60,200L0,200Z"/></svg>